<?xml version="1.0" standalone="no"?>
<!DOCTYPE svg PUBLIC "-//W3C//DTD SVG 20010904//EN"
 "http://www.w3.org/TR/2001/REC-SVG-20010904/DTD/svg10.dtd">
<svg version="1.0" xmlns="http://www.w3.org/2000/svg"
 width="512.000000pt" height="512.000000pt" viewBox="0 0 512.000000 512.000000"
 preserveAspectRatio="xMidYMid meet">
<metadata>
Created by potrace 1.14, written by Peter Selinger 2001-2017
</metadata>
<g transform="translate(0.000000,512.000000) scale(0.100000,-0.100000)"
fill="#000000" stroke="none">
<path d="M674 5090 c-11 -4 -32 -22 -47 -39 l-26 -31 0 -1488 c0 -818 -1
-1636 -1 -1819 l0 -332 -112 0 c-62 1 -127 3 -144 6 -34 5 -74 36 -92 70 -9
16 -12 371 -12 1380 0 1329 0 1359 20 1390 16 27 66 64 85 63 3 0 20 0 38 0
l33 0 0 103 -1 102 -150 2 c-140 3 -153 1 -189 -20 -21 -12 -47 -38 -57 -57
-18 -33 -19 -99 -19 -1760 0 -1661 1 -1727 19 -1760 11 -20 36 -44 61 -57 l43
-23 2441 0 c2280 1 2443 2 2473 18 17 9 42 30 55 47 l23 30 3 1733 c2 1946 9
1779 -73 1827 -39 24 -50 25 -191 25 l-149 0 0 -105 -1 -105 33 0 c18 0 35 0
38 0 19 1 67 -35 85 -64 l21 -35 0 -1355 c0 -1484 4 -1391 -58 -1432 -23 -15
-50 -19 -165 -21 l-138 -2 0 57 c0 31 -2 852 -3 1824 l-2 1768 -33 32 -32 33
-1878 2 c-1032 1 -1886 -2 -1898 -7z m411 -179 c14 -44 -27 -79 -69 -59 -30
13 -35 52 -10 79 13 14 21 15 44 7 16 -5 32 -18 35 -27z m218 -7 c5 -28 -25
-64 -50 -59 -10 2 -22 4 -26 4 -15 2 -24 46 -14 68 18 40 81 31 90 -13z m-445
24 c20 -20 14 -56 -13 -74 -23 -15 -27 -15 -50 0 -44 29 -28 86 25 86 14 0 31
-5 38 -12z m3557 -1873 l0 -1670 -1857 -1 -1858 -1 0 1671 0 1672 1858 -1
1857 0 0 -1670z"/>
<path d="M1854 4521 c-2 -2 -4 -68 -4 -146 l0 -141 45 0 c49 0 51 2 46 74 -3
31 -2 32 38 32 40 0 41 1 41 34 0 33 -2 35 -37 38 -27 2 -39 8 -41 21 -3 14 4
17 41 17 42 0 45 2 51 31 3 17 6 34 6 38 0 7 -179 9 -186 2z"/>
<path d="M2210 4518 c-43 -22 -61 -73 -58 -157 3 -68 6 -75 36 -102 28 -25 40
-29 92 -29 32 0 70 5 84 11 36 17 56 67 56 141 0 67 -21 118 -57 136 -28 14
-125 14 -153 0z m111 -80 c3 -31 1 -119 -2 -123 -2 -1 -17 -5 -34 -7 l-30 -3
-3 73 -3 72 36 0 c21 0 35 -5 36 -12z"/>
<path d="M2555 4521 c-3 -2 -5 -68 -5 -146 l0 -142 47 1 48 2 -3 42 c-4 55 13
55 38 0 19 -42 20 -43 70 -43 27 -1 50 2 50 5 0 3 -11 23 -24 44 -24 39 -24
40 -5 65 40 55 28 141 -24 162 -29 12 -182 20 -192 10z m136 -81 c1 -5 2 -16
3 -22 1 -13 -18 -26 -41 -27 -8 -1 -13 11 -13 29 0 25 4 30 25 30 14 0 26 -4
26 -10z"/>
<path d="M2935 4520 c-1 -3 -6 -68 -10 -145 l-7 -140 46 -1 c25 0 47 2 47 5 1
3 3 29 4 56 5 75 6 75 24 5 17 -63 17 -64 53 -66 l36 -2 19 71 18 72 5 -70 5
-70 45 0 45 0 -1 50 c-2 106 -11 226 -18 232 -10 11 -106 10 -113 0 -3 -5 -13
-39 -22 -75 l-17 -65 -11 39 c-6 21 -15 55 -20 74 -9 35 -9 35 -67 35 -32 0
-59 -2 -61 -5z"/>
<path d="M920 4004 c-8 -3 -25 -19 -37 -37 -21 -31 -23 -44 -23 -183 1 -159 5
-175 57 -203 30 -15 3251 -16 3286 0 48 22 57 55 57 209 0 154 -9 187 -57 209
-17 8 -499 11 -1646 10 -892 -1 -1629 -3 -1637 -5z m3243 -63 l27 -1 0 -150
c0 -136 -2 -150 -17 -151 -24 -1 -3214 -1 -3230 0 -10 1 -13 38 -13 150 l0
150 33 3 c26 2 3113 1 3200 -1z"/>
<path d="M948 3392 c-77 -20 -88 -49 -88 -228 l0 -146 34 -34 34 -34 1637 2
1637 3 29 35 29 34 0 144 c0 156 -8 187 -57 213 -20 11 -340 13 -1634 14 -885
0 -1615 -1 -1621 -3z m3230 -71 c9 -1 12 -38 12 -151 l0 -150 -1630 0 -1630 0
0 149 c0 101 4 151 11 153 10 3 3207 3 3237 -1z"/>
<path d="M918 2761 c-51 -25 -58 -50 -58 -206 0 -92 5 -149 13 -165 29 -59
-75 -55 1693 -55 1544 0 1621 1 1647 18 16 10 32 29 37 43 15 38 12 294 -3
324 -30 60 78 57 -1686 57 -1465 0 -1614 -1 -1643 -16z m3272 -204 l0 -154
-1630 0 -1630 -1 0 154 0 154 1630 0 1630 0 0 -153z"/>
<path d="M1789 2093 c-16 -7 -30 -16 -30 -20 -1 -4 -3 -91 -5 -193 -2 -186 4
-233 33 -244 17 -7 1133 -10 1139 -3 3 2 -14 58 -37 123 -58 165 -60 177 -38
214 11 17 31 35 47 41 29 12 41 9 335 -94 85 -30 130 -41 132 -33 5 15 4 123
-1 163 -3 20 -13 37 -27 45 -32 17 -1507 18 -1548 1z"/>
<path d="M2945 1863 c13 -38 48 -139 79 -227 31 -87 56 -160 56 -162 0 -2 9
-4 20 -4 14 0 28 17 51 61 l31 62 52 -52 c28 -28 57 -51 64 -51 7 0 26 14 42
32 33 35 33 35 -32 100 -21 20 -38 41 -38 45 0 4 27 23 60 41 62 34 69 42 48
60 -11 8 -441 162 -453 162 -2 0 7 -30 20 -67z"/>
<path d="M1892 588 c0 -188 -92 -348 -299 -526 l-48 -41 1013 -1 c556 0 1012
2 1012 4 0 2 -30 26 -67 54 -165 123 -272 319 -275 505 l0 37 -668 0 -668 0 0
-32z"/>
</g>
</svg>
